<?xml version="1.0" encoding="utf-8"?>
<!-- Generator: Adobe Illustrator 26.1.0, SVG Export Plug-In . SVG Version: 6.00 Build 0)  -->
<svg version="1.1" id="Laag_1" xmlns="http://www.w3.org/2000/svg" xmlns:xlink="http://www.w3.org/1999/xlink" x="0px" y="0px"
	 viewBox="0 0 203.3 100.1" style="enable-background:new 0 0 203.3 100.1;" xml:space="preserve">
<style type="text/css">
	.st0{fill:#951B1E;}
	.st1{fill:#EA222B;}
	.st2{fill:#27A8DD;}
	.st3{fill:#076692;}
</style>
<rect x="7.3" y="7.3" transform="matrix(0.7071 -0.7071 0.7071 0.7071 -10.37 25.0322)" class="st0" width="35.4" height="35.4"/>
<rect x="57.4" y="7.3" transform="matrix(0.7071 -0.7071 0.7071 0.7071 4.295 60.4367)" class="st1" width="35.4" height="35.4"/>
<rect x="107.5" y="7.3" transform="matrix(0.7071 -0.7071 0.7071 0.7071 18.9595 95.8354)" class="st1" width="35.4" height="35.4"/>
<rect x="57.4" y="57.4" transform="matrix(0.7071 -0.7071 0.7071 0.7071 -31.1024 75.1051)" class="st2" width="35.4" height="35.4"/>
<rect x="160.6" y="32.4" transform="matrix(0.7071 -0.7071 0.7071 0.7071 16.8159 140.7397)" class="st2" width="35.4" height="35.4"/>
<rect x="107.5" y="57.4" transform="matrix(0.7071 -0.7071 0.7071 0.7071 -16.4392 110.5006)" class="st3" width="35.4" height="35.4"/>
<polygon class="st3" points="50.1,25 25,50.1 0,75.1 25,100.1 50.1,75.1 75.1,50.1 "/>
</svg>
